# xmcd
# 
# Track frame offsets:
#     150
#     15496
#     30144
#     50540
#     73859
#     92971
#     112542
#     133421
#     155453
#     176612
#     193375
#     207677
# 
# Disc length: 3118
# 
# Revision: 0
# Processed by: cddbd v1.5.2PL0 Copyright (c) Steve Scherf et al.
# Submitted via: fre:ac v1.0.31
# 
DISCID=a70c2c0c
DTITLE=The Willis Clan - Roots
DYEAR=2012
DGENRE=Celtic
TTITLE0=A Traveling Song
TTITLE1=Boys From Boston
TTITLE2=The Rambler
TTITLE3=Lonely Castle William Set
TTITLE4=Ship Of The Line
TTITLE5=Maranatha's Wedding
TTITLE6=Lottie Lies Among The Flowers
TTITLE7=The Wounded Crow
TTITLE8=Spinning Set
TTITLE9=Jack B
TTITLE10=My Soldier
TTITLE11=Blast O'Reels
EXTD=
EXTT0=
EXTT1=
EXTT2=
EXTT3=
EXTT4=
EXTT5=
EXTT6=
EXTT7=
EXTT8=
EXTT9=
EXTT10=
EXTT11=
PLAYORDER=
